<svg width="31" height="31" viewBox="0 0 31 31" fill="none" xmlns="http://www.w3.org/2000/svg">
<path d="M14.9516 18.1932C19.245 18.1932 22.9109 18.8738 22.9109 21.5976C22.9109 24.3202 19.2685 25.0256 14.9516 25.0256C10.6582 25.0256 6.99227 24.345 6.99227 21.6224C6.99227 18.8986 10.6347 18.1932 14.9516 18.1932ZM21.8162 16.5531C23.4576 16.5226 25.2222 16.748 25.8743 16.908C27.2557 17.1796 28.1644 17.7341 28.5408 18.5398C28.859 19.2013 28.859 19.9687 28.5408 20.6291C27.965 21.8788 26.1084 22.28 25.3869 22.3837C25.2379 22.4062 25.118 22.2766 25.1337 22.1268C25.5023 18.6638 22.5702 17.0219 21.8117 16.6443C21.7792 16.6274 21.7725 16.6015 21.7759 16.5857C21.7781 16.5745 21.7915 16.5564 21.8162 16.5531ZM7.90633 16.5507L8.21542 16.5535C8.24006 16.5569 8.25239 16.5749 8.25463 16.5851C8.25799 16.602 8.25127 16.6268 8.2199 16.6448C7.46026 17.0223 4.52818 18.6642 4.89679 22.1261C4.91247 22.2771 4.79371 22.4056 4.6447 22.3842C3.92316 22.2805 2.06665 21.8793 1.49077 20.6295C1.17145 19.9681 1.17145 19.2018 1.49077 18.5403C1.86722 17.7345 2.77475 17.1801 4.1562 16.9074C4.8094 16.7485 6.57291 16.5231 8.21542 16.5535L7.90633 16.5507ZM14.9516 5.00513C17.8747 5.00513 20.2186 7.36037 20.2186 10.3016C20.2186 13.2417 17.8747 15.5992 14.9516 15.5992C12.0285 15.5992 9.6846 13.2417 9.6846 10.3016C9.6846 7.36037 12.0285 5.00513 14.9516 5.00513ZM22.1019 5.8884C24.9253 5.8884 27.1426 8.56031 26.3874 11.5365C25.8776 13.5401 24.0323 14.871 21.9764 14.8169C21.7703 14.8113 21.5675 14.7921 21.3714 14.7583C21.2291 14.7335 21.1574 14.5724 21.2381 14.4529C22.0223 13.2922 22.4694 11.896 22.4694 10.3972C22.4694 8.83302 21.9809 7.3748 21.1327 6.17914C21.1059 6.14196 21.0857 6.08448 21.1126 6.04166C21.135 6.00673 21.1764 5.9887 21.2157 5.97968C21.5014 5.92108 21.7949 5.8884 22.1019 5.8884ZM7.92803 5.88829C8.23502 5.88829 8.52857 5.92097 8.81539 5.97957C8.85348 5.98858 8.89606 6.00774 8.91847 6.04155C8.94424 6.08437 8.92519 6.14184 8.8983 6.17903C8.05016 7.37469 7.56166 8.83291 7.56166 10.3971C7.56166 11.8959 8.0087 13.2921 8.79298 14.4528C8.87365 14.5723 8.80195 14.7334 8.65965 14.7582C8.46246 14.7932 8.26079 14.8112 8.05464 14.8168C5.9987 14.8709 4.1534 13.54 3.64362 11.5364C2.88735 8.5602 5.10462 5.88829 7.92803 5.88829Z" fill="#6C6C6C"/>
</svg>
