<svg width="17" height="20" viewBox="0 0 17 20" fill="none" xmlns="http://www.w3.org/2000/svg">
<path fill-rule="evenodd" clip-rule="evenodd" d="M5.1 0.952381C5.1 0.426395 4.71944 0 4.25 0C3.78056 0 3.4 0.426395 3.4 0.952381V1.90476H2.55C1.8737 1.90476 1.2251 2.20578 0.746878 2.7416C0.26866 3.27742 0 4.00414 0 4.7619V17.1429C0 17.9006 0.26866 18.6273 0.746878 19.1632C1.2251 19.699 1.8737 20 2.55 20H14.45C15.1263 20 15.7749 19.699 16.2531 19.1632C16.7313 18.6273 17 17.9006 17 17.1429V4.7619C17 4.00414 16.7313 3.27742 16.2531 2.7416C15.7749 2.20578 15.1263 1.90476 14.45 1.90476H14.025C13.5556 1.90476 13.175 2.33116 13.175 2.85714C13.175 3.38313 13.5556 3.80952 14.025 3.80952H14.45C14.6754 3.80952 14.8916 3.90986 15.051 4.08847C15.2104 4.26708 15.3 4.50932 15.3 4.7619V7.61905H1.7V4.7619C1.7 4.50932 1.78955 4.26708 1.94896 4.08847C2.10837 3.90986 2.32457 3.80952 2.55 3.80952H3.4V4.7619C3.4 5.28789 3.78056 5.71429 4.25 5.71429C4.71944 5.71429 5.1 5.28789 5.1 4.7619V0.952381ZM1.94896 17.8163C1.78955 17.6377 1.7 17.3954 1.7 17.1429V9.52381H15.3V17.1429C15.3 17.3954 15.2104 17.6377 15.051 17.8163C14.8916 17.9949 14.6754 18.0952 14.45 18.0952H2.55C2.32457 18.0952 2.10837 17.9949 1.94896 17.8163Z" fill="#5A5A5A"/>
<path d="M11.9 0.952381C11.9 0.426395 11.5194 0 11.05 0C10.5806 0 10.2 0.426395 10.2 0.952381V1.90476H7.225C6.75556 1.90476 6.375 2.33116 6.375 2.85714C6.375 3.38313 6.75556 3.80952 7.225 3.80952H10.2V4.7619C10.2 5.28789 10.5806 5.71429 11.05 5.71429C11.5194 5.71429 11.9 5.28789 11.9 4.7619V0.952381Z" fill="#5A5A5A"/>
</svg>
