<svg width="22" height="23" viewBox="0 0 22 23" fill="none" xmlns="http://www.w3.org/2000/svg">
<path fill-rule="evenodd" clip-rule="evenodd" d="M10.8333 0C9.84353 0 8.87265 0.292073 8.02614 0.844497L2.60948 4.3795C1.81295 4.89931 1.15432 5.63154 0.697217 6.50544C0.24012 7.37935 -1.54965e-05 8.36542 7.49802e-10 9.36843V16.7091C7.49802e-10 18.2562 0.570683 19.7399 1.5865 20.8339C2.60233 21.9279 3.98008 22.5424 5.41667 22.5424H16.25C17.6866 22.5424 19.0643 21.9279 20.0802 20.8339C21.096 19.7399 21.6667 18.2562 21.6667 16.7091V9.36727C21.6665 8.36449 21.4262 7.37845 20.9691 6.50481C20.512 5.63118 19.8535 4.89919 19.0572 4.37951L13.6405 0.844506C12.794 0.292083 11.8231 0 10.8333 0ZM9.14903 2.84002C9.65693 2.50857 10.2395 2.33333 10.8333 2.33333C11.4272 2.33333 12.0097 2.50857 12.5176 2.84002L17.9343 6.37502C18.4121 6.68683 18.8072 7.12604 19.0815 7.65022C19.3557 8.17432 19.4998 8.76569 19.5 9.36727V16.7091C19.5 17.6374 19.1576 18.5276 18.5481 19.184C17.9386 19.8404 17.1119 20.2091 16.25 20.2091H15.1667V16.7091C15.1667 15.4714 14.7101 14.2844 13.8975 13.4093C13.0848 12.5341 11.9826 12.0424 10.8333 12.0424C9.68406 12.0424 8.58186 12.5341 7.7692 13.4093C6.95654 14.2844 6.5 15.4714 6.5 16.7091V20.2091H5.41667C4.55471 20.2091 3.72806 19.8404 3.11857 19.184C2.50908 18.5276 2.16667 17.6374 2.16667 16.7091V9.36843C2.16665 8.76662 2.31074 8.17495 2.585 7.6506C2.85926 7.12625 3.25443 6.68692 3.73235 6.37503L9.14903 2.84002ZM12.3654 15.0592C12.7717 15.4968 13 16.0903 13 16.7091V20.2091H8.66667V16.7091C8.66667 16.0903 8.89494 15.4968 9.30127 15.0592C9.70759 14.6216 10.2587 14.3758 10.8333 14.3758C11.408 14.3758 11.9591 14.6216 12.3654 15.0592Z" fill="#4D4848"/>
</svg>
