<svg width="20" height="26" viewBox="0 0 20 26" fill="none" xmlns="http://www.w3.org/2000/svg">
<path d="M3.75 0.5C2.75544 0.5 1.80161 0.895088 1.09835 1.59835C0.395088 2.30161 0 3.25544 0 4.25V21.75C0 22.7446 0.395088 23.6984 1.09835 24.4017C1.80161 25.1049 2.75544 25.5 3.75 25.5H16.25C17.2446 25.5 18.1984 25.1049 18.9016 24.4017C19.6049 23.6984 20 22.7446 20 21.75V20.5C20 19.8096 19.4404 19.25 18.75 19.25C18.0596 19.25 17.5 19.8096 17.5 20.5V21.75C17.5 22.0815 17.3683 22.3995 17.1339 22.6339C16.8995 22.8683 16.5815 23 16.25 23H3.75C3.41848 23 3.10054 22.8683 2.86612 22.6339C2.6317 22.3995 2.5 22.0815 2.5 21.75V4.25C2.5 3.91848 2.6317 3.60054 2.86612 3.36612C3.10054 3.1317 3.41848 3 3.75 3H16.25C16.5815 3 16.8995 3.1317 17.1339 3.36612C17.3683 3.60054 17.5 3.91848 17.5 4.25V5.5C17.5 6.19036 18.0596 6.75 18.75 6.75C19.4404 6.75 20 6.19036 20 5.5V4.25C20 3.25544 19.6049 2.30161 18.9016 1.59835C18.1984 0.895088 17.2446 0.5 16.25 0.5H3.75Z" fill="#D55F5A"/>
<path d="M15.8839 8.36612C15.3957 7.87796 14.6043 7.87796 14.1161 8.36612C13.628 8.85427 13.628 9.64573 14.1161 10.1339L15.7322 11.75H10C9.30964 11.75 8.75 12.3096 8.75 13C8.75 13.6904 9.30964 14.25 10 14.25H15.7322L14.1161 15.8661C13.628 16.3543 13.628 17.1457 14.1161 17.6339C14.6043 18.122 15.3957 18.122 15.8839 17.6339L19.6339 13.8839C20.122 13.3957 20.122 12.6043 19.6339 12.1161L15.8839 8.36612Z" fill="#D55F5A"/>
</svg>
